{"title":"The.Last.Legion.2007.720p.BRRip.x264.Feel-Free","uid":6193903,"size":2352665695,"categoryP":"video","categoryS":"hd___movies","magnet":"?xt=urn:btih:6fe2c4ecebae39818a2bc355eaa3fb68980ff7ba&amp;dn=The.Last.Legion.2007.720p.BRRip.x264.Feel-Free&amp;tr=udp%3A%2F%2Ftracker.openbittorrent.com%3A80&amp;tr=udp%3A%2F%2Fopen.demonii.com%3A1337&amp;tr=udp%3A%2F%2Ftracker.coppersurfer.tk%3A6969&amp;tr=udp%3A%2F%2Fexodus.desync.com%3A6969","seeders":2,"leechers":0,"uploader":"neon","files":11,"time":1298389482,"description":"Genre:Action | Adventure | Fantasy\nLanguage:English\n &lt;a href=&quot; http://www.imdb.com/title/tt0462396/&quot; rel=&quot;nofollow&quot; target=&quot;_NEW&quot;&gt; http://www.imdb.com/title/tt0462396/&lt;/a&gt;\nSource:BluRay.1080p\nSubtitles:Romana\n\nFormat : MPEG-4\nFormat profile : Base Media\nCodec ID : isom\nFile size : 2.19 GiB\nDuration : 1h 41mn\nOverall bit rate : 3 073 Kbps\n\nVideo\nFormat settings, CABAC : Yes\nFormat settings, ReFrames : 3 frames\nCodec ID : avc1\nCodec ID/Info : Advanced Video Coding\nDuration : 1h 41mn\nBit rate mode : Variable\nBit rate : 2 710 Kbps\nMaximum bit rate : 17.4 Mbps\nWidth : 1 280 pixels\nHeight : 528 pixels\nDisplay aspect ratio : 2.40:1\nFrame rate mode : Constant\nFrame rate : 23.976 fps\nColor space : YUV\nChroma subsampling : 4:2:0\nBit depth : 8 bits\nScan type : Progressive\nBits/(Pixel*Frame) : 0.167\nStream size : 1.87 GiB (85%)\nWriting library : x264\n\nAudio\nID : 2\nFormat : AAC\nFormat/Info : Advanced Audio Codec\nFormat version : Version 4\nFormat profile : LC\nFormat settings, SBR : No\nCodec ID : 40\nDuration : 1h 41mn\nBit rate mode : Variable\nBit rate : 445 Kbps\nMaximum bit rate : 537 Kbps\nChannel(s) : 6 channels\nChannel positions : Front: L C R, Side: L R, LFE\nSampling rate : 48.0 KHz\nStream size : 324 MiB (14%)\n\n\nPlot:\nAs the Roman empire crumbles, young Romulus Augustus flees the city and embarks on a perilous voyage to Britain to track down a legion of supporters\n\n","torrent":{"xt":"urn:btih:6fe2c4ecebae39818a2bc355eaa3fb68980ff7ba","amp;dn":"The.Last.Legion.2007.720p.BRRip.x264.Feel-Free","amp;tr":["udp%3A%2F%2Ftracker.openbittorrent.com%3A80","udp%3A%2F%2Fopen.demonii.com%3A1337","udp%3A%2F%2Ftracker.coppersurfer.tk%3A6969","udp%3A%2F%2Fexodus.desync.com%3A6969"],"infoHash":"6fe2c4ecebae39818a2bc355eaa3fb68980ff7ba","infoHashBuffer":{"type":"Buffer","data":[111,226,196,236,235,174,57,129,138,43,195,85,234,163,251,104,152,15,247,186]},"announce":[],"urlList":[]}}